<svg width="345.1750244140625px" height="131.20000610351562px" xmlns="http://www.w3.org/2000/svg" viewBox="77.41248779296876 9.39999694824219 345.1750244140625 131.20000610351562" style="background: none;" preserveAspectRatio="xMidYMid"><defs><linearGradient id="editing-gradient-gradient" x1="0" x2="1" y1="0.5" y2="0.5" gradientUnits="objectBoundingBox"><stop offset="0" stop-color="#99e082"></stop><stop offset="1" stop-color="#1dffce"></stop></linearGradient></defs><g><g transform="translate(129.5749864578247, 106.3599967956543)"><path d="M41.06-22.41L41.06-11.41L41.06-11.41Q41.06-10.25 40.80-8.97L40.80-8.97L40.80-8.97Q40.53-7.69 39.97-6.42L39.97-6.42L39.97-6.42Q39.41-5.16 38.52-4L38.52-4L38.52-4Q37.63-2.84 36.36-1.95L36.36-1.95L36.36-1.95Q35.09-1.06 33.44-0.53L33.44-0.53L33.44-0.53Q31.78 0 29.69 0L29.69 0L15.03 0L15.03 0Q13.88 0 12.59-0.27L12.59-0.27L12.59-0.27Q11.31-0.53 10.05-1.09L10.05-1.09L10.05-1.09Q8.78-1.66 7.63-2.55L7.63-2.55L7.63-2.55Q6.47-3.44 5.58-4.70L5.58-4.70L5.58-4.70Q4.69-5.97 4.16-7.64L4.16-7.64L4.16-7.64Q3.63-9.31 3.63-11.41L3.63-11.41L3.63-48.06L11.75-48.06L11.75-11.41L11.75-11.41Q11.75-9.91 12.69-9.02L12.69-9.02L12.69-9.02Q13.63-8.13 15.03-8.13L15.03-8.13L29.69-8.13L29.69-8.13Q31.22-8.13 32.08-9.03L32.08-9.03L32.08-9.03Q32.94-9.94 32.94-11.41L32.94-11.41L32.94-22.41L32.94-22.41Q32.94-23.94 32.03-24.80L32.03-24.80L32.03-24.80Q31.13-25.66 29.69-25.66L29.69-25.66L15.03-25.66L15.03-33.78L29.69-33.78L29.69-33.78Q30.84-33.78 32.13-33.52L32.13-33.52L32.13-33.52Q33.41-33.25 34.67-32.69L34.67-32.69L34.67-32.69Q35.94-32.13 37.09-31.23L37.09-31.23L37.09-31.23Q38.25-30.34 39.13-29.08L39.13-29.08L39.13-29.08Q40-27.81 40.53-26.16L40.53-26.16L40.53-26.16Q41.06-24.50 41.06-22.41L41.06-22.41ZM84.94-33.78L84.94-4.09L84.94-4.09Q84.94-3.22 84.63-2.47L84.63-2.47L84.63-2.47Q84.31-1.72 83.77-1.17L83.77-1.17L83.77-1.17Q83.22-0.63 82.48-0.31L82.48-0.31L82.48-0.31Q81.75 0 80.91 0L80.91 0L62.53 0L62.53 0Q61.03 0 59.33-0.34L59.33-0.34L59.33-0.34Q57.63-0.69 55.97-1.45L55.97-1.45L55.97-1.45Q54.31-2.22 52.77-3.39L52.77-3.39L52.77-3.39Q51.22-4.56 50.06-6.23L50.06-6.23L50.06-6.23Q48.91-7.91 48.20-10.09L48.20-10.09L48.20-10.09Q47.50-12.28 47.50-15.03L47.50-15.03L47.50-33.78L55.63-33.78L55.63-15.03L55.63-15.03Q55.63-13.44 56.17-12.17L56.17-12.17L56.17-12.17Q56.72-10.91 57.66-10L57.66-10L57.66-10Q58.59-9.09 59.86-8.61L59.86-8.61L59.86-8.61Q61.13-8.13 62.59-8.13L62.59-8.13L76.81-8.13L76.81-33.78L84.94-33.78ZM125.28-8.13L125.28 0L103.25 0L103.25 0Q101.56 0 99.56-0.59L99.56-0.59L99.56-0.59Q97.56-1.19 95.86-2.55L95.86-2.55L95.86-2.55Q94.16-3.91 93.02-6.08L93.02-6.08L93.02-6.08Q91.88-8.25 91.88-11.41L91.88-11.41L91.88-22.41L91.88-22.41Q91.88-23.56 92.14-24.84L92.14-24.84L92.14-24.84Q92.41-26.13 92.97-27.39L92.97-27.39L92.97-27.39Q93.53-28.66 94.42-29.81L94.42-29.81L94.42-29.81Q95.31-30.97 96.58-31.84L96.58-31.84L96.58-31.84Q97.84-32.72 99.50-33.25L99.50-33.25L99.50-33.25Q101.16-33.78 103.25-33.78L103.25-33.78L125.28-33.78L125.28-25.66L103.25-25.66L103.25-25.66Q101.66-25.66 100.83-24.84L100.83-24.84L100.83-24.84Q100-24.03 100-22.34L100-22.34L100-11.41L100-11.41Q100-9.81 100.84-8.97L100.84-8.97L100.84-8.97Q101.69-8.13 103.31-8.13L103.31-8.13L125.28-8.13ZM168.50-22.41L168.50-11.41L168.50-11.41Q168.50-9.31 167.97-7.64L167.97-7.64L167.97-7.64Q167.44-5.97 166.56-4.70L166.56-4.70L166.56-4.70Q165.69-3.44 164.53-2.55L164.53-2.55L164.53-2.55Q163.38-1.66 162.11-1.09L162.11-1.09L162.11-1.09Q160.84-0.53 159.55-0.27L159.55-0.27L159.55-0.27Q158.25 0 157.09 0L157.09 0L142.44 0L142.44 0Q140.75 0 138.75-0.59L138.75-0.59L138.75-0.59Q136.75-1.19 135.05-2.55L135.05-2.55L135.05-2.55Q133.34-3.91 132.20-6.08L132.20-6.08L132.20-6.08Q131.06-8.25 131.06-11.41L131.06-11.41L131.06-22.41L131.06-22.41Q131.06-25.53 132.20-27.70L132.20-27.70L132.20-27.70Q133.34-29.88 135.05-31.23L135.05-31.23L135.05-31.23Q136.75-32.59 138.75-33.19L138.75-33.19L138.75-33.19Q140.75-33.78 142.44-33.78L142.44-33.78L157.09-33.78L157.09-33.78Q160.22-33.78 162.41-32.66L162.41-32.66L162.41-32.66Q164.59-31.53 165.94-29.83L165.94-29.83L165.94-29.83Q167.28-28.13 167.89-26.13L167.89-26.13L167.89-26.13Q168.50-24.13 168.50-22.41L168.50-22.41ZM160.38-11.41L160.38-22.34L160.38-22.34Q160.38-24.03 159.53-24.84L159.53-24.84L159.53-24.84Q158.69-25.66 157.09-25.66L157.09-25.66L142.50-25.66L142.50-25.66Q140.88-25.66 140.03-24.83L140.03-24.83L140.03-24.83Q139.19-24 139.19-22.41L139.19-22.41L139.19-11.41L139.19-11.41Q139.19-9.81 140.03-8.97L140.03-8.97L140.03-8.97Q140.88-8.13 142.50-8.13L142.50-8.13L157.09-8.13L157.09-8.13Q158.75-8.13 159.56-8.97L159.56-8.97L159.56-8.97Q160.38-9.81 160.38-11.41L160.38-11.41ZM182.19-4.09L182.19-4.09L182.19-4.09Q182.19-3.25 181.86-2.52L181.86-2.52L181.86-2.52Q181.53-1.78 180.98-1.23L180.98-1.23L180.98-1.23Q180.44-0.69 179.70-0.38L179.70-0.38L179.70-0.38Q178.97-0.06 178.16-0.06L178.16-0.06L178.16-0.06Q177.31-0.06 176.58-0.38L176.58-0.38L176.58-0.38Q175.84-0.69 175.30-1.23L175.30-1.23L175.30-1.23Q174.75-1.78 174.44-2.52L174.44-2.52L174.44-2.52Q174.13-3.25 174.13-4.09L174.13-4.09L174.13-4.09Q174.13-4.91 174.44-5.64L174.44-5.64L174.44-5.64Q174.75-6.38 175.30-6.92L175.30-6.92L175.30-6.92Q175.84-7.47 176.58-7.80L176.58-7.80L176.58-7.80Q177.31-8.13 178.16-8.13L178.16-8.13L178.16-8.13Q178.97-8.13 179.70-7.80L179.70-7.80L179.70-7.80Q180.44-7.47 180.98-6.92L180.98-6.92L180.98-6.92Q181.53-6.38 181.86-5.64L181.86-5.64L181.86-5.64Q182.19-4.91 182.19-4.09ZM196.78-48.06L196.78-40.72L188.66-40.72L188.66-48.06L196.78-48.06ZM196.78-33.78L196.78 3.25L196.78 3.25Q196.78 5.34 196.25 7.02L196.25 7.02L196.25 7.02Q195.72 8.69 194.84 9.95L194.84 9.95L194.84 9.95Q193.97 11.22 192.81 12.11L192.81 12.11L192.81 12.11Q191.66 13 190.39 13.56L190.39 13.56L190.39 13.56Q189.13 14.13 187.84 14.39L187.84 14.39L187.84 14.39Q186.56 14.66 185.41 14.66L185.41 14.66L170.75 14.66L170.75 6.53L185.41 6.53L185.41 6.53Q187.03 6.53 187.84 5.69L187.84 5.69L187.84 5.69Q188.66 4.84 188.66 3.25L188.66 3.25L188.66-33.78L196.78-33.78ZM237.22-11.41L237.22-11.41L237.22-11.41Q237.22-9.31 236.69-7.64L236.69-7.64L236.69-7.64Q236.16-5.97 235.28-4.70L235.28-4.70L235.28-4.70Q234.41-3.44 233.25-2.55L233.25-2.55L233.25-2.55Q232.09-1.66 230.83-1.09L230.83-1.09L230.83-1.09Q229.56-0.53 228.27-0.27L228.27-0.27L228.27-0.27Q226.97 0 225.81 0L225.81 0L203.81 0L203.81-8.13L225.75-8.13L225.75-8.13Q227.41-8.13 228.25-8.97L228.25-8.97L228.25-8.97Q229.09-9.81 229.09-11.41L229.09-11.41L229.09-11.41Q228.94-14.66 225.81-14.66L225.81-14.66L213.22-14.66L213.22-14.66Q210.53-14.66 208.66-15.59L208.66-15.59L208.66-15.59Q206.78-16.53 205.61-17.94L205.61-17.94L205.61-17.94Q204.44-19.34 203.92-20.97L203.92-20.97L203.92-20.97Q203.41-22.59 203.41-24L203.41-24L203.41-24Q203.41-26.72 204.38-28.58L204.38-28.58L204.38-28.58Q205.34-30.44 206.81-31.59L206.81-31.59L206.81-31.59Q208.28-32.75 210-33.27L210-33.27L210-33.27Q211.72-33.78 213.22-33.78L213.22-33.78L233.19-33.78L233.19-25.66L213.28-25.66L213.28-25.66Q212.66-25.66 212.30-25.52L212.30-25.52L212.30-25.52Q211.94-25.38 211.77-25.14L211.77-25.14L211.77-25.14Q211.59-24.91 211.56-24.64L211.56-24.64L211.56-24.64Q211.53-24.38 211.53-24.13L211.53-24.13L211.53-24.13Q211.56-23.63 211.72-23.34L211.72-23.34L211.72-23.34Q211.88-23.06 212.11-22.94L212.11-22.94L212.11-22.94Q212.34-22.81 212.64-22.80L212.64-22.80L212.64-22.80Q212.94-22.78 213.22-22.78L213.22-22.78L225.81-22.78L225.81-22.78Q228.94-22.78 231.13-21.66L231.13-21.66L231.13-21.66Q233.31-20.53 234.66-18.83L234.66-18.83L234.66-18.83Q236-17.13 236.61-15.13L236.61-15.13L236.61-15.13Q237.22-13.13 237.22-11.41Z" fill="url(#editing-gradient-gradient)"></path></g></g><style>text {
  font-size: 64px;
  font-family: Arial Black;
  dominant-baseline: central;
  text-anchor: middle;
}</style></svg>